<?xml version="1.0" encoding="UTF-8" standalone="no"?>
<!DOCTYPE svg PUBLIC "-//W3C//DTD SVG 1.1//EN" "http://www.w3.org/Graphics/SVG/1.1/DTD/svg11.dtd">
<svg width="100%" height="100%" viewBox="0 0 4163 617" version="1.1" xmlns="http://www.w3.org/2000/svg" xmlns:xlink="http://www.w3.org/1999/xlink" xml:space="preserve" xmlns:serif="http://www.serif.com/" style="fill-rule:evenodd;clip-rule:evenodd;stroke-linejoin:round;stroke-miterlimit:2;">
    <g transform="matrix(5.55556,0,0,5.55556,232.774,-1821.31)">
        <text x="101.629px" y="404.436px" style="font-family:'LucidaGrande', 'Lucida Grande', sans-serif;font-weight:500;font-size:60px;fill:rgb(1,154,222);">H<tspan x="142.121px 185.133px 232.861px 267.2px 310.211px 339.775px 380.267px 414.05px 442.765px 456.45px 494.363px " y="404.436px 404.436px 404.436px 404.436px 404.436px 404.436px 404.436px 404.436px 404.436px 404.436px 404.436px ">OWTOPHYSICS</tspan></text>
    </g>
    <g transform="matrix(1.6506,0,0,1.66321,153.987,453.02)">
        <path d="M0,-115.731L8.383,-118.713C7.389,-123.91 -7.456,-143.296 -3.163,-158.345C0.633,-171.653 23.295,-171.021 36.106,-167.405C37.417,-166.456 39.248,-152.493 53.663,-153.848C67.22,-155.136 55.538,-162.841 75.444,-154.232C90.628,-147.635 102.807,-141.398 116.793,-133.129C165.575,-104.23 220.322,-61.729 253.424,-17.918C270.438,4.587 302.975,58.34 245.968,49.211C242.465,43.359 242.917,38.479 234.738,35.926C226.491,33.35 221.181,37.327 217.453,41.914C206.155,38.773 207.421,36.129 198.18,44.286C199.874,46.545 202.337,47.065 205.094,48.082C206.517,48.624 212.618,50.658 213.499,51.268C216.233,53.165 218.921,69.298 234.874,64.554C239.212,63.266 239.528,61.119 241.946,59.876C245.606,58.001 257.333,60.306 263.208,59.56C296.015,55.403 290.818,23.702 277.849,0.768C263.188,-25.198 238.123,-53.093 208.986,-78.842C165.331,-117.421 112.535,-151.18 71.897,-166.411C62,-170.117 70.564,-172.127 62.068,-179.968C57.12,-184.532 49.121,-185.029 43.789,-181.482C34.208,-175.087 44.038,-177.415 26.21,-179.042C5.92,-180.917 -15.952,-175.426 -13.602,-149.104C-12.834,-140.472 -8.744,-130.418 -4.722,-122.803L0,-115.731Z" style="fill:rgb(1,154,222);"/>
    </g>
    <g transform="matrix(1.6506,0,0,1.66321,176.066,500.033)">
        <path d="M0,-125.017C1.446,-118.871 24.854,-94.921 29.916,-89.814C40.603,-79.082 50.409,-70.563 63.446,-59.198C63.378,-41.529 70.473,-38.366 83.736,-40.354C104.772,-27.453 126.847,-12.088 151.069,-1.107C159.248,2.599 159.971,-0.113 162.344,-3.525C158.977,-8.563 117.493,-28.402 92.865,-48.263C93.294,-56.035 93.384,-60.78 89.136,-65.096C85.815,-68.485 79.511,-70.789 73.501,-68.688C69.389,-67.265 71.264,-65.163 61.751,-73.817C57.481,-77.726 54.702,-80.053 50.409,-83.985C41.574,-92.029 26.503,-106.602 18.957,-115.979C15.929,-119.752 12.201,-124.542 9.083,-127.616L0,-125.017Z" style="fill:rgb(1,154,222);"/>
    </g>
    <g transform="matrix(1.6506,0,0,1.66321,310.253,494.245)">
        <path d="M0,19.5C5.355,25.216 24.877,29.125 34.367,30.165C60.554,32.966 85.815,25.194 105.812,10.101C113.72,4.135 123.91,-6.1 127.684,-13.466C122.238,-13.398 116.206,-11.771 110.286,-10.98C98.197,-9.399 99.033,2.283 69.276,11.569C38.479,21.194 22.075,8.27 13.941,11.863C10.168,13.535 2.734,16.901 0,19.5" style="fill:rgb(94,105,108);"/>
    </g>
    <g transform="matrix(1.6506,0,0,1.66321,465.251,50.2752)">
        <path d="M0,107.009C-1.694,102.965 -5.4,100.027 -8.089,96.028C-11.003,91.644 -12.811,87.984 -14.393,82.855C-16.833,74.992 -17.805,37.281 -16.562,26.616C-15.726,19.409 -11.659,19.544 -5.197,18.618C6.236,16.991 6.462,0 -12.495,3.637C-37.666,8.495 -32.22,35.406 -32.243,60.78C-32.266,71.128 -29.893,102.965 -17.895,105.427C-13.76,106.263 -4.88,106.693 0,107.009" style="fill:rgb(94,105,108);"/>
    </g>
    <g transform="matrix(1.6506,0,0,1.66321,356.76,123.97)">
        <path d="M0,1.83C0.045,-4.271 0.249,-10.733 0.045,-16.788C-0.226,-24.425 -1.853,-25.193 -3.931,-30.887C-7.479,-33.779 -7.66,-35.723 -13.331,-38.479C-26.458,-44.851 -38.411,-40.061 -34.253,-30.164C-31.858,-24.47 -26.052,-26.572 -21.013,-24.832C-12.472,-21.827 -15.522,13.037 -15.771,23.363C-15.929,29.78 -17.488,34.479 -17.737,40.173L-4.858,46.681C1.333,38.727 -0.52,13.376 0,1.83" style="fill:rgb(94,105,108);"/>
    </g>
    <g transform="matrix(1.6506,0,0,1.66321,273.219,361.588)">
        <path d="M0,84.053C3.389,83.149 12.314,79.67 14.642,76.8C8.36,70.044 7.185,71.084 -0.52,60.713C-13.76,42.908 -13.783,34.118 -17.285,15.252C-18.031,11.139 -30.074,0.158 -32.627,0C-33.418,20.697 -32.017,33.237 -24.877,49.867C-19.635,62.046 -9.038,77.817 0,84.053" style="fill:rgb(94,105,108);"/>
    </g>
    <g transform="matrix(1.6506,0,0,1.66321,231.151,239.378)">
        <path d="M0,48.059C3.186,50.205 6.823,54.68 10.845,58.34C11.885,57.481 11.229,58.317 12.246,56.758C13.421,54.928 16.155,46.907 20.064,40.332C33.011,18.505 55.719,6.371 59.65,-3.096C55.877,-6.349 50.748,-9.129 45.438,-10.281C42.139,-4.7 26.165,7.998 19.432,15.274C14.144,21.013 0.52,38.208 0,48.059" style="fill:rgb(94,105,108);"/>
    </g>
    <g transform="matrix(1.23341,-1.10528,-1.09689,-1.24284,566.01,316.514)">
        <path d="M-22.968,-8.735C-16.149,-0.558 -2.084,34.467 -8.848,43.93C-12.197,48.631 -18.473,56.057 -22.968,60.387C-23.981,54.999 -20.264,44.285 -24.735,25.794C-26.101,20.177 -24.929,-3.121 -22.968,-8.735" style="fill:rgb(94,105,108);"/>
    </g>
    <g transform="matrix(1.62053,-0.316015,-0.313618,-1.63292,518.931,436.302)">
        <path d="M-2.591,2.345L15.13,2.345C19.152,11.601 21.381,11.1 17.389,17.466C15.987,19.738 11.546,28.423 8.779,30.063C3.996,11.174 1.936,13.851 -2.591,2.345" style="fill:rgb(94,105,108);"/>
    </g>
    <g transform="matrix(1.6506,0,0,1.66321,370.335,459.598)">
        <path d="M0,13.421L-3.706,9.354C-10.574,4.293 -17.827,12.156 -35.044,21.058C-47.811,27.678 -60.396,32.333 -73.479,37.891C-73.501,37.891 -87.917,23.408 -98.626,36.649C-100.592,39.089 -100.637,40.806 -101.609,42.613C-104.705,48.465 -115.663,46.477 -121.379,45.257C-126.373,44.218 -131.186,41.642 -133.536,36.92C-138.326,27.272 -130.508,11.162 -127.028,4.316C-122.147,-5.265 -116.16,-13.58 -110.466,-21.104C-107.461,-25.103 -105.541,-27.702 -101.315,-32.424C-95.87,-38.547 -97.745,-39.948 -98.107,-50.296C-105.066,-47.517 -130.666,-10.71 -135.84,-0.61C-147.002,21.126 -151.837,50.477 -121.764,55.335C-113.223,56.713 -108.591,54.928 -101.79,55.267C-97.316,55.47 -98.83,56.6 -95.124,59.017C-87.917,63.717 -77.094,61.57 -72.914,51.629C-70.27,45.37 -72.1,48.353 -59.018,43.11C-36.875,34.208 -18.912,22.979 0,13.421" style="fill:rgb(114,177,46);"/>
    </g>
    <g transform="matrix(1.6506,0,0,1.66321,454.249,209.012)">
        <path d="M0,-10.235C0.881,-6.959 2.35,-4.496 4.519,-2.259L13.263,-5.648C16.133,-4.202 27.43,5.762 37.259,-6.846C43.088,-14.279 32.333,-18.03 65.276,-22.256C120.363,-29.328 85.341,21.917 84.256,28.289C87.51,29.08 90.086,30.526 93.339,30.729C99.915,21.827 107.552,2.938 106.151,-10.257C102.919,-40.964 61.368,-32.672 40.558,-26.819C34.954,-25.238 35.858,-27.249 31.475,-29.418C14.642,-37.8 9.467,-15.59 8.654,-14.844C7.457,-13.737 2.305,-12.11 0,-10.235" style="fill:rgb(114,177,46);"/>
    </g>
    <g transform="matrix(1.6506,0,0,1.66321,391.183,370.683)">
        <path d="M0,46.907L8.36,52.601C16.02,48.511 34.683,33.734 42.343,27.95C47.946,23.724 52.827,19.77 57.866,15.161C61.051,12.269 71.536,4.09 73.298,0.994L67.243,-5.694L0,46.907Z" style="fill:rgb(114,177,46);"/>
    </g>
    <g transform="matrix(1.29726,-1.02838,-1.02058,-1.30718,300.855,370.425)">
        <path d="M-10.928,27.001L74.4,27.001L71.259,36.86C58.853,37.278 18.49,39.362 8.452,37.858C4.248,37.228 -7.222,30.871 -10.928,27.001" style="fill:rgb(114,177,46);"/>
    </g>
    <g transform="matrix(1.6506,0,0,1.66321,548.308,303.226)">
        <path d="M0,6.395L3.028,16.065C7.253,14.597 10.461,9.151 13.421,5.898C16.72,2.26 20.923,-2.078 22.889,-6.575L13.06,-9.67C9.851,-6.19 1.966,3.277 0,6.395" style="fill:rgb(114,177,46);"/>
    </g>
    <g transform="matrix(1.6506,0,0,1.66321,648.593,349.826)">
        <path d="M0,-20.991C9.964,-15.636 21.488,1.265 8.27,17.895C-3.231,32.333 -16.404,34.819 -27.114,41.868L-22.617,49.686C-16.539,49.189 -2.553,40.422 1.514,37.552C8.519,32.627 15.229,26.616 19.5,19.363C31.565,-1.153 18.189,-22.753 5.694,-29.351C6.01,-37.96 4.022,-43.247 -1.536,-46.523C-11.5,-52.375 -15.929,-44.648 -21.171,-45.348C-23.182,-45.619 -35.971,-50.951 -39.134,-51.991C-67.242,-61.278 -118.826,-70.677 -147.589,-68.892C-145.172,-65.751 -144.042,-65.751 -140.766,-63.492C-138.777,-62.136 -135.298,-59.221 -133.083,-58.634C-129.197,-57.572 -114.985,-57.21 -109.563,-56.533C-81.703,-53.098 -54.363,-48.105 -28.718,-37.666C-20.109,-34.164 -26.888,-29.351 -19.612,-22.55C-13.534,-16.879 -7.117,-18.257 0,-20.991" style="fill:rgb(238,114,5);"/>
    </g>
    <g transform="matrix(1.6506,0,0,1.66321,149.139,241.746)">
        <path d="M0,114.646C1.898,112.477 4.044,109.449 4.835,106.851C-3.977,100.682 -22.957,95.485 -32.672,80.008C-56.329,42.252 27.204,18.437 55.108,13.398C61.864,12.178 62.407,12.065 66.203,8.021C69.163,4.835 72.417,2.779 73.727,0C57.074,1.536 31.949,7.931 17.398,12.789C-0.701,18.821 -17.127,26.323 -29.893,36.852C-42.388,47.178 -53.889,64.553 -41.394,84.821C-37.44,91.26 -30.887,97.768 -23.906,102.49C-19.093,105.744 -5.581,113.9 0,114.646" style="fill:rgb(238,114,5);"/>
    </g>
    <g transform="matrix(1.6506,0,0,1.66321,416.544,444.077)">
        <path d="M0,11.568C4.067,18.55 13.828,16.403 22.233,15.409C35.542,13.828 81.296,7.998 93.271,2.507C95.96,1.287 94.56,2.056 96.073,0.813C94.153,-3.051 92.978,-3.842 90.899,-6.982C57.007,0.339 56.419,1.536 21.239,5.49C10.552,6.688 7.569,4.902 0,11.568" style="fill:rgb(238,114,5);"/>
    </g>
    <g transform="matrix(1.59533,0.426801,0.423564,-1.60752,186.628,441.974)">
        <path d="M0.675,-2.999L25.151,-2.999C23.526,0.567 20.118,6.184 16.765,6.836C15.138,7.153 4.741,6.777 3.092,6.387C1.138,1.332 -0.184,1.027 0.675,-2.999" style="fill:rgb(238,114,5);"/>
    </g>
</svg>
