<?xml version="1.0" standalone="no"?>
<!DOCTYPE svg PUBLIC "-//W3C//DTD SVG 20010904//EN"
 "http://www.w3.org/TR/2001/REC-SVG-20010904/DTD/svg10.dtd">
<svg version="1.0" xmlns="http://www.w3.org/2000/svg"
 width="642.000000pt" height="642.000000pt" viewBox="0 0 642.000000 642.000000"
 preserveAspectRatio="xMidYMid meet">
<metadata>
Created by potrace 1.11, written by Peter Selinger 2001-2013
</metadata>
<g transform="translate(0.000000,642.000000) scale(0.100000,-0.100000)"
fill="#000000" stroke="none">
<path d="M2375 5731 c-95 -32 -126 -92 -91 -176 16 -38 47 -62 91 -69 17 -2
50 -8 75 -11 60 -10 77 -20 96 -57 41 -80 49 -149 49 -428 -1 -238 -10 -416
-25 -490 -5 -25 -9 -62 -10 -82 0 -37 0 -37 104 -90 l104 -54 15 26 c19 32 43
127 53 210 5 36 8 254 8 485 l1 420 -29 74 c-46 117 -145 200 -283 236 -59 16
-123 18 -158 6z"/>
<path d="M3720 5724 c-199 -47 -295 -169 -317 -402 -12 -128 -4 -642 12 -762
2 -19 7 -57 10 -85 4 -27 15 -86 26 -130 11 -44 22 -87 24 -95 9 -39 57 -132
85 -163 17 -20 45 -40 63 -46 58 -18 307 -38 307 -25 0 5 -23 38 -51 74 -76
98 -126 179 -150 240 -11 30 -25 64 -29 75 -24 56 -42 307 -44 620 -3 265 5
358 31 393 21 29 68 49 136 57 95 12 158 72 153 146 -7 91 -117 136 -256 103z"/>
<path d="M1604 4806 c-37 -12 -95 -48 -132 -83 -16 -15 -12 -15 -87 -3 -308
51 -545 13 -669 -108 -131 -127 -156 -325 -71 -577 50 -150 153 -345 182 -345
11 0 123 39 131 45 2 2 -29 70 -68 151 -104 214 -129 292 -131 396 -4 161 64
243 233 283 76 18 297 14 373 -7 47 -13 52 -17 82 -78 37 -74 99 -135 152
-150 81 -22 179 -7 230 35 39 33 70 31 166 -10 142 -61 197 -86 310 -140 261
-126 566 -307 900 -533 204 -138 573 -408 605 -442 3 -3 39 -32 80 -64 63 -51
193 -159 210 -176 3 -3 39 -34 80 -70 216 -187 505 -479 661 -670 30 -36 56
-67 59 -70 3 -3 21 -25 40 -50 19 -25 37 -47 40 -50 3 -3 37 -50 76 -105 190
-269 318 -528 350 -705 7 -44 4 -144 -6 -179 -22 -76 -79 -130 -167 -158 -45
-14 -236 -20 -303 -10 -14 3 -30 5 -37 6 -7 0 -28 35 -48 76 -54 112 -122 157
-237 157 -58 -1 -106 -23 -160 -72 l-40 -38 -77 26 c-95 31 -130 26 -191 -28
-45 -40 -45 -40 -24 -58 11 -10 68 -35 126 -56 l105 -38 44 -75 c75 -127 146
-173 252 -159 61 9 94 23 132 57 37 33 84 47 150 42 122 -7 264 -5 308 6 68
16 177 67 210 99 60 56 107 142 122 221 8 39 7 159 0 216 -38 276 -269 672
-645 1105 -552 636 -1419 1330 -2225 1780 -160 90 -403 211 -520 260 -11 4
-67 27 -124 51 -110 46 -126 60 -135 123 -19 123 -182 212 -312 172z"/>
<path d="M4855 4724 c-49 -7 -130 -22 -180 -33 -241 -55 -245 -56 -263 -43
-181 128 -320 82 -420 -141 -30 -65 -33 -68 -96 -97 -36 -17 -66 -37 -66 -44
0 -21 27 -78 50 -105 l20 -23 65 26 c36 14 69 26 75 26 5 0 31 -13 57 -28 93
-54 170 -65 238 -32 72 34 118 89 141 165 9 34 26 63 44 78 63 53 345 106 554
103 119 -2 136 -4 188 -28 108 -50 151 -121 147 -246 -3 -116 -39 -230 -144
-457 -53 -115 -53 -116 28 -139 l69 -20 19 24 c29 39 115 218 137 290 75 235
80 388 16 517 -51 105 -150 174 -296 206 -81 18 -259 18 -383 1z"/>
<path d="M2331 4052 c-11 -20 -243 -248 -387 -380 -52 -47 -184 -219 -252
-327 -39 -62 -79 -154 -91 -204 l-8 -38 88 -88 c53 -52 92 -84 99 -80 9 6 46
80 50 100 1 2 21 44 44 92 85 173 170 284 350 455 273 260 346 335 346 355 0
27 -86 83 -167 111 -58 19 -64 19 -72 4z"/>
<path d="M3351 3918 c36 -37 187 -139 220 -148 31 -9 91 -16 219 -25 131 -10
194 -15 220 -20 14 -3 45 -7 70 -10 25 -3 56 -7 70 -10 14 -3 45 -7 70 -10
305 -36 845 -175 1066 -275 63 -28 94 -68 94 -122 1 -60 73 -154 139 -180 49
-19 119 -18 187 3 l65 20 32 -24 c130 -101 198 -226 198 -363 0 -116 -51 -218
-170 -339 -79 -80 -157 -132 -336 -225 -195 -101 -180 -84 -137 -162 l37 -66
56 18 c166 56 426 230 546 364 62 70 124 175 148 251 30 94 26 238 -9 340 -42
123 -131 244 -231 316 -43 31 -45 34 -45 85 0 114 -49 196 -145 240 -64 30
-108 30 -191 -1 -36 -14 -80 -25 -96 -25 -16 0 -94 25 -174 56 -156 60 -211
77 -404 129 -131 35 -347 83 -445 100 -16 3 -57 10 -90 16 -33 6 -69 13 -80
14 -11 2 -69 11 -130 20 -60 9 -121 18 -135 20 -14 2 -58 7 -99 10 -41 4 -84
9 -95 11 -12 3 -117 7 -235 11 l-215 6 25 -25z"/>
<path d="M1908 3864 c-2 -1 -25 -5 -53 -8 -135 -18 -465 -96 -670 -157 -228
-69 -552 -201 -647 -264 -20 -14 -40 -25 -44 -25 -23 0 -205 -140 -279 -215
-134 -135 -201 -261 -211 -397 -20 -256 154 -506 489 -702 117 -69 238 -126
266 -126 12 0 31 17 51 44 54 79 55 78 -126 175 -255 136 -340 201 -431 328
-60 84 -86 160 -86 249 1 266 347 532 965 738 57 19 130 42 163 51 73 19 77
20 145 39 46 13 186 44 317 71 33 7 125 83 198 164 l37 41 -41 -2 c-22 -1 -42
-2 -43 -4z"/>
<path d="M2635 3652 c-487 -358 -594 -445 -646 -526 -40 -60 -94 -189 -104
-246 -3 -18 -9 -38 -12 -43 -8 -14 18 3 63 39 32 26 385 306 854 677 41 32 84
66 95 76 11 9 37 29 58 45 l37 29 -69 48 c-38 27 -71 49 -73 49 -1 -1 -93 -67
-203 -148z"/>
<path d="M4015 3599 c11 -13 49 -53 84 -89 87 -88 149 -164 190 -230 19 -30
53 -85 77 -122 64 -99 351 -388 386 -388 15 0 -36 199 -88 339 -102 273 -223
446 -327 467 -74 14 -212 34 -272 39 l-69 6 19 -22z"/>
<path d="M4914 3339 c-38 -46 -87 -107 -109 -136 l-41 -54 25 -79 25 -79 27
15 c16 8 56 47 90 87 34 39 83 96 108 126 48 56 101 131 101 143 0 4 -28 16
-62 27 -35 10 -70 22 -79 26 -12 4 -35 -16 -85 -76z"/>
<path d="M1165 3405 c-5 -2 -35 -11 -67 -20 l-56 -16 16 -32 c27 -56 112 -160
292 -356 182 -200 364 -376 630 -611 47 -41 91 -80 97 -87 7 -6 13 -31 13 -55
0 -63 24 -153 51 -194 40 -59 88 -78 199 -79 90 0 97 -2 143 -33 26 -17 50
-32 52 -32 2 0 75 -46 162 -102 429 -275 833 -497 924 -506 41 -4 48 -1 73 28
26 31 26 33 9 52 -24 27 -86 67 -348 221 -121 71 -236 139 -255 151 -19 13
-84 54 -145 91 -60 38 -112 72 -115 75 -3 3 -25 18 -50 34 -25 16 -81 56 -125
89 -44 33 -81 61 -83 63 -2 1 -5 44 -7 96 -2 72 -8 104 -24 136 -52 103 -195
152 -309 107 -42 -17 -43 -17 -80 8 -20 14 -51 38 -67 54 -17 15 -73 66 -125
113 -52 47 -151 139 -219 205 -164 160 -165 161 -246 246 -67 71 -90 97 -221
254 -32 39 -65 78 -74 88 -14 17 -24 19 -45 12z"/>
<path d="M4114 2528 c-104 -82 -202 -159 -219 -172 -16 -13 -132 -104 -256
-203 -124 -98 -241 -189 -259 -203 -18 -14 -41 -32 -51 -40 -9 -8 -43 -35 -73
-59 -31 -24 -56 -47 -56 -50 0 -3 30 -25 65 -49 72 -47 66 -47 153 10 131 88
597 445 668 513 6 5 37 33 70 60 136 116 225 198 235 217 11 21 13 18 -72 108
-15 16 -29 7 -205 -132z"/>
<path d="M1477 2658 c-5 -16 0 -346 6 -373 3 -11 8 -42 11 -70 25 -192 124
-436 261 -644 77 -118 102 -149 183 -229 62 -60 67 -63 101 -57 46 9 174 71
197 96 17 18 14 22 -68 102 -127 123 -228 257 -300 402 -35 69 -81 207 -93
275 -3 19 -12 71 -20 115 -8 44 -17 95 -20 114 -8 48 -27 79 -87 143 -53 57
-147 138 -159 138 -4 0 -9 -6 -12 -12z"/>
<path d="M1329 2503 c-110 -92 -300 -346 -547 -728 -32 -50 -103 -212 -130
-297 -41 -128 -51 -188 -48 -293 3 -106 18 -161 61 -230 91 -144 264 -203 545
-186 106 7 136 2 166 -26 15 -14 53 -37 82 -51 124 -57 263 8 327 153 26 57
19 53 218 131 149 57 398 179 687 335 85 47 185 100 222 119 38 19 68 37 68
40 0 3 -13 19 -28 36 -72 81 -134 74 -324 -37 -248 -145 -350 -194 -784 -377
l-72 -30 -35 29 c-45 37 -130 76 -181 82 -53 7 -124 -17 -166 -55 -19 -18 -48
-59 -65 -92 -16 -32 -42 -68 -57 -79 -58 -43 -268 -28 -378 28 -52 26 -96 72
-117 123 -13 32 -19 143 -9 187 24 116 47 176 121 325 87 175 252 417 421 617
52 61 76 115 69 154 -2 11 -5 49 -6 84 -1 36 -3 65 -5 65 -1 0 -17 -12 -35
-27z"/>
<path d="M4516 2398 c-3 -24 -8 -70 -12 -103 -3 -33 -16 -96 -29 -140 -44
-150 -53 -195 -43 -195 31 0 274 54 279 62 3 5 14 45 24 88 17 76 17 79 -1
108 -41 63 -188 222 -206 222 -4 0 -9 -19 -12 -42z"/>
<path d="M1185 1910 c-37 -51 -47 -100 -19 -100 15 0 56 -11 267 -70 96 -27
97 -28 97 -7 0 31 -21 87 -50 132 -24 37 -32 42 -108 62 -146 38 -147 38 -187
-17z"/>
<path d="M4765 1924 c-82 -18 -163 -36 -180 -39 -16 -3 -59 -13 -95 -21 -80
-19 -316 -60 -390 -69 -30 -3 -62 -8 -70 -10 -8 -2 -45 -7 -82 -10 -37 -3 -77
-8 -90 -10 -13 -3 -61 -7 -108 -11 -125 -8 -188 -21 -235 -48 -69 -41 -73 -52
-36 -85 36 -32 86 -48 146 -46 41 2 170 13 215 19 14 2 48 7 75 10 28 4 61 8
75 11 14 2 48 7 75 10 54 7 86 11 180 25 33 5 78 12 100 15 48 7 200 33 235
40 14 3 41 8 60 11 83 15 250 56 305 76 93 33 95 36 49 107 -27 42 -45 61 -59
60 -11 0 -87 -16 -170 -35z"/>
<path d="M4355 1555 c-38 -7 -90 -15 -114 -19 -23 -4 -54 -11 -67 -16 -13 -5
-24 -7 -24 -5 0 11 -87 -50 -145 -100 -159 -138 -351 -234 -570 -285 -212 -50
-331 -48 -649 13 -119 23 -156 17 -272 -42 -119 -60 -136 -75 -108 -97 47 -38
210 -99 314 -118 14 -2 45 -9 70 -14 25 -6 64 -13 88 -16 23 -3 61 -9 85 -12
70 -10 290 -6 373 6 320 48 612 176 844 369 113 94 261 257 299 329 11 21 10
22 -21 21 -18 -1 -64 -7 -103 -14z"/>
</g>
</svg>
