<?xml version="1.0" standalone="no"?>
<!DOCTYPE svg PUBLIC "-//W3C//DTD SVG 20010904//EN"
 "http://www.w3.org/TR/2001/REC-SVG-20010904/DTD/svg10.dtd">
<svg version="1.0" xmlns="http://www.w3.org/2000/svg"
 width="1000.000000pt" height="1000.000000pt" viewBox="0 0 1000.000000 1000.000000"
 preserveAspectRatio="xMidYMid meet">
<metadata>
Created by potrace 1.11, written by Peter Selinger 2001-2013
</metadata>
<g transform="translate(0.000000,1000.000000) scale(0.100000,-0.100000)"
fill="#000000" stroke="none">
<path d="M3950 9587 c-3 -2 -39 -7 -80 -11 -138 -12 -316 -49 -465 -96 -111
-36 -318 -120 -323 -132 -2 -5 -12 -8 -22 -8 -10 0 -20 -3 -22 -7 -1 -5 -28
-21 -58 -37 -261 -137 -539 -379 -743 -646 -153 -199 -278 -441 -361 -697 -19
-60 -37 -120 -40 -134 -9 -45 -15 -71 -20 -87 -3 -9 -7 -34 -11 -56 -3 -21 -7
-41 -9 -45 -4 -6 -13 -78 -25 -201 -13 -129 -6 -413 14 -530 2 -14 7 -45 10
-70 10 -75 73 -312 110 -417 79 -219 232 -489 385 -680 35 -43 758 -774 1607
-1624 l1544 -1546 315 315 c173 173 314 318 312 323 -2 5 -687 694 -1524 1531
-836 838 -1538 1546 -1560 1573 -145 182 -266 443 -299 645 -4 25 -9 54 -12
65 -2 11 -7 76 -10 145 -22 467 179 915 547 1215 51 41 197 134 268 169 125
63 323 122 475 142 60 8 282 8 347 -1 159 -20 333 -72 471 -140 179 -90 274
-161 467 -355 l123 -124 315 315 c172 172 314 317 314 321 0 27 -459 448 -488
448 -6 0 -12 4 -14 9 -5 14 -193 129 -288 177 -263 130 -500 202 -787 238 -98
12 -453 22 -463 13z"/>
<path d="M4240 7115 c-173 -173 -312 -316 -310 -319 3 -3 696 -697 1540 -1543
1164 -1165 1550 -1558 1594 -1620 186 -265 274 -541 274 -863 0 -396 -146
-747 -428 -1030 -241 -242 -536 -386 -870 -425 -73 -9 -271 -9 -340 0 -224 28
-450 111 -635 233 -105 70 -154 112 -317 276 l-109 110 -314 -314 c-173 -173
-315 -318 -315 -322 0 -27 459 -448 488 -448 6 0 12 -4 14 -9 5 -14 182 -123
283 -174 248 -126 519 -209 788 -241 123 -15 438 -18 532 -6 33 5 83 11 110
15 28 3 59 8 70 10 11 3 32 7 47 9 154 25 422 118 603 211 321 163 581 382
828 695 27 35 127 190 163 255 125 222 239 545 268 760 3 22 8 50 10 63 12 58
20 202 20 352 -1 197 -9 283 -46 465 -70 351 -246 722 -478 1012 -56 69 -3137
3163 -3150 3163 -3 0 -147 -142 -320 -315z"/>
</g>
</svg>
